BosaLisu-Regular.ufo
<glyph name="quotedbl" format="2">
  <advance width="335"/>
  <unicode hex="0022"/>
  <outline>
    <contour>
      <point x="45" y="582" type="line"/>
      <point x="135" y="582" type="line"/>
      <point x="109" y="379" type="line"/>
      <point x="71" y="379" type="line"/>
    </contour>
    <contour>
      <point x="199" y="582" type="line"/>
      <point x="290" y="582" type="line"/>
      <point x="263" y="379" type="line"/>
      <point x="225" y="379" type="line"/>
    </contour>
  </outline>
</glyph>
<glyph name="numbersign" format="2">
  <advance width="410"/>
  <unicode hex="0023"/>
  <outline>
    <contour>
      <point x="253" y="215" type="line"/>
      <point x="274" y="328" type="line"/>
      <point x="161" y="328" type="line"/>
      <point x="140" y="215" type="line"/>
    </contour>
    <contour>
      <point x="400" y="215" type="line"/>
      <point x="400" y="164" type="line"/>
      <point x="295" y="164" type="line"/>
      <point x="264" y="-4" type="line"/>
      <point x="212" y="-4" type="line"/>
      <point x="243" y="164" type="line"/>
      <point x="129" y="164" type="line"/>
      <point x="99" y="-4" type="line"/>
      <point x="46" y="-4" type="line"/>
      <point x="78" y="164" type="line"/>
      <point x="10" y="164" type="line"/>
      <point x="10" y="215" type="line"/>
      <point x="88" y="215" type="line"/>
      <point x="109" y="328" type="line"/>
      <point x="10" y="328" type="line"/>
      <point x="10" y="379" type="line"/>
      <point x="118" y="379" type="line"/>
      <point x="148" y="542" type="line"/>
      <point x="200" y="542" type="line"/>
      <point x="170" y="379" type="line"/>
      <point x="284" y="379" type="line"/>
      <point x="314" y="542" type="line"/>
      <point x="366" y="542" type="line"/>
      <point x="336" y="379" type="line"/>
      <point x="400" y="379" type="line"/>
      <point x="400" y="328" type="line"/>
      <point x="326" y="328" type="line"/>
      <point x="306" y="215" type="line"/>
    </contour>
  </outline>
</glyph>
<glyph name="parenleft" format="2">
  <advance width="294"/>
  <unicode hex="0028"/>
  <outline>
    <contour>
      <point x="252" y="-137" type="curve"/>
      <point x="252" y="-182" type="line"/>
      <point x="81" y="-91"/>
      <point x="31" y="27"/>
      <point x="31" y="208" type="curve" smooth="yes"/>
      <point x="31" y="387"/>
      <point x="81" y="509"/>
      <point x="252" y="597" type="curve"/>
      <point x="252" y="552" type="line"/>
      <point x="128" y="482"/>
      <point x="118" y="335"/>
      <point x="118" y="208" type="curve" smooth="yes"/>
      <point x="118" y="80"/>
      <point x="128" y="-67"/>
    </contour>
  </outline>
</glyph>
<glyph name="parenright" format="2">
  <advance width="288"/>
  <unicode hex="0029"/>
  <outline>
    <contour>
      <point x="252" y="208" type="curve" smooth="yes"/>
      <point x="252" y="27"/>
      <point x="202" y="-91"/>
      <point x="31" y="-182" type="curve"/>
      <point x="31" y="-137" type="line"/>
      <point x="155" y="-67"/>
      <point x="165" y="80"/>
      <point x="165" y="208" type="curve" smooth="yes"/>
      <point x="165" y="335"/>
      <point x="155" y="482"/>
      <point x="31" y="552" type="curve"/>
      <point x="31" y="597" type="line"/>
      <point x="202" y="506"/>
      <point x="252" y="389"/>
    </contour>
  </outline>
</glyph>
<glyph name="asterisk" format="2">
  <advance width="410"/>
  <unicode hex="002A"/>
  <outline>
    <contour>
      <point x="256" y="386" type="line"/>
      <point x="378" y="351" type="line"/>
      <point x="347" y="284" type="line"/>
      <point x="225" y="357" type="line"/>
      <point x="243" y="231" type="line"/>
      <point x="169" y="231" type="line"/>
      <point x="185" y="358" type="line"/>
      <point x="63" y="282" type="line"/>
      <point x="33" y="350" type="line"/>
      <point x="154" y="386" type="line"/>
      <point x="33" y="423" type="line"/>
      <point x="63" y="491" type="line"/>
      <point x="185" y="416" type="line"/>
      <point x="169" y="542" type="line"/>
      <point x="243" y="542" type="line"/>
      <point x="225" y="416" type="line"/>
      <point x="347" y="489" type="line"/>
      <point x="378" y="422" type="line"/>
    </contour>
  </outline>
</glyph>
<glyph name="question" format="2">
  <advance width="364"/>
  <unicode hex="003F"/>
  <outline>
    <contour>
      <point x="217" y="37" type="curve" smooth="yes"/>
      <point x="217" y="8"/>
      <point x="195" y="-16"/>
      <point x="164" y="-16" type="curve" smooth="yes"/>
      <point x="135" y="-16"/>
      <point x="111" y="6"/>
      <point x="111" y="37" type="curve" smooth="yes"/>
      <point x="111" y="68"/>
      <point x="133" y="90"/>
      <point x="164" y="90" type="curve" smooth="yes"/>
      <point x="195" y="90"/>
      <point x="217" y="66"/>
    </contour>
    <contour>
      <point x="335" y="427" type="curve" smooth="yes"/>
      <point x="335" y="323"/>
      <point x="279" y="261"/>
      <point x="186" y="240" type="curve"/>
      <point x="181" y="135" type="line"/>
      <point x="140" y="135" type="line"/>
      <point x="128" y="278" type="line"/>
      <point x="154" y="283"/>
      <point x="175" y="287"/>
      <point x="190" y="291" type="curve" smooth="yes"/>
      <point x="205" y="296"/>
      <point x="217" y="301"/>
      <point x="226" y="309" type="curve" smooth="yes"/>
      <point x="245" y="324"/>
      <point x="252" y="369"/>
      <point x="252" y="422" type="curve" smooth="yes"/>
      <point x="252" y="492"/>
      <point x="233" y="544"/>
      <point x="161" y="544" type="curve" smooth="yes"/>
      <point x="134" y="544"/>
      <point x="110" y="529"/>
      <point x="87" y="516" type="curve"/>
      <point x="73" y="489" type="line"/>
      <point x="37" y="489" type="line"/>
      <point x="30" y="496"/>
      <point x="26" y="504"/>
      <point x="23" y="511" type="curve" smooth="yes"/>
      <point x="18" y="524"/>
      <point x="18" y="541"/>
      <point x="37" y="560" type="curve"/>
      <point x="80" y="571"/>
      <point x="120" y="588"/>
      <point x="161" y="588" type="curve" smooth="yes"/>
      <point x="254" y="588"/>
      <point x="335" y="535"/>
    </contour>
  </outline>
</glyph>
<glyph name="bracketleft" format="2">
  <advance width="273"/>
  <unicode hex="005B"/>
  <outline>
    <contour>
      <point x="56" y="617" type="line"/>
      <point x="255" y="617" type="line"/>
      <point x="253" y="565" type="line"/>
      <point x="130" y="565" type="line"/>
      <point x="130" y="-70" type="line"/>
      <point x="248" y="-70" type="line"/>
      <point x="251" y="-122" type="line"/>
      <point x="56" y="-122" type="line"/>
    </contour>
  </outline>
</glyph>
<glyph name="bracketright" format="2">
  <advance width="273"/>
  <unicode hex="005D"/>
  <outline>
    <contour>
      <point x="217" y="617" type="line"/>
      <point x="217" y="-129" type="line"/>
      <point x="25" y="-129" type="line"/>
      <point x="25" y="-71" type="line"/>
      <point x="144" y="-69" type="line"/>
      <point x="144" y="559" type="line"/>
      <point x="25" y="559" type="line"/>
      <point x="25" y="617" type="line"/>
    </contour>
  </outline>
</glyph>
<glyph name="bar" format="2">
  <advance width="186"/>
  <unicode hex="007C"/>
  <outline>
    <contour>
      <point x="120" y="604" type="line"/>
      <point x="120" y="-181" type="line"/>
      <point x="69" y="-181" type="line"/>
      <point x="69" y="604" type="line"/>
    </contour>
  </outline>
</glyph>
<glyph name="paragraph" format="2">
  <advance width="372"/>
  <unicode hex="00B6"/>
  <outline>
    <contour>
      <point x="357" y="542" type="line"/>
      <point x="357" y="502" type="line"/>
      <point x="330" y="503" type="line"/>
      <point x="330" y="-107" type="line"/>
      <point x="282" y="-107" type="line"/>
      <point x="282" y="502" type="line"/>
      <point x="224" y="502" type="line"/>
      <point x="224" y="-107" type="line"/>
      <point x="176" y="-107" type="line"/>
      <point x="177" y="221" type="line"/>
      <point x="76" y="224"/>
      <point x="-1" y="276"/>
      <point x="-1" y="386" type="curve" smooth="yes"/>
      <point x="-1" y="497"/>
      <point x="76" y="542"/>
      <point x="177" y="542" type="curve" smooth="yes"/>
    </contour>
  </outline>
</glyph>
<glyph name="quoteright" format="2">
  <advance width="273"/>
  <unicode hex="2019"/>
  <outline>
    <contour>
      <point x="199" y="510" type="curve" smooth="yes"/>
      <point x="199" y="429"/>
      <point x="147" y="381"/>
      <point x="67" y="358" type="curve"/>
      <point x="67" y="399" type="line"/>
      <point x="103" y="410"/>
      <point x="138" y="429"/>
      <point x="138" y="463" type="curve" smooth="yes"/>
      <point x="138" y="472"/>
      <point x="130" y="477"/>
      <point x="123" y="481" type="curve"/>
      <point x="120" y="484"/>
      <point x="116" y="484"/>
      <point x="113" y="487" type="curve"/>
      <point x="98" y="495"/>
      <point x="83" y="506"/>
      <point x="83" y="531" type="curve" smooth="yes"/>
      <point x="83" y="563"/>
      <point x="106" y="580"/>
      <point x="137" y="580" type="curve" smooth="yes"/>
      <point x="178" y="580"/>
      <point x="199" y="547"/>
    </contour>
  </outline>
</glyph>
<glyph name="uni2605" format="2">
  <advance width="794"/>
  <unicode hex="2605"/>
  <outline>
    <contour>
      <point x="503" y="270" type="line"/>
      <point x="566" y="76" type="line"/>
      <point x="398" y="196" type="line"/>
      <point x="230" y="76" type="line"/>
      <point x="295" y="270" type="line"/>
      <point x="127" y="392" type="line"/>
      <point x="335" y="392" type="line"/>
      <point x="398" y="587" type="line"/>
      <point x="463" y="392" type="line"/>
      <point x="670" y="392" type="line"/>
    </contour>
  </outline>
</glyph>
<glyph name="uniA4D0" format="2">
  <advance width="494"/>
  <unicode hex="A4D0"/>
  <outline>
    <contour>
      <point x="245" y="0" type="curve" smooth="yes"/>
      <point x="55" y="0" type="line"/>
      <point x="55" y="530" type="line"/>
      <point x="225" y="530" type="line" smooth="yes"/>
      <point x="343" y="530"/>
      <point x="412" y="479"/>
      <point x="412" y="389" type="curve" smooth="yes"/>
      <point x="412" y="346"/>
      <point x="395" y="311"/>
      <point x="353" y="284" type="curve"/>
      <point x="407" y="265"/>
      <point x="442" y="222"/>
      <point x="442" y="164" type="curve" smooth="yes"/>
      <point x="442" y="50"/>
      <point x="363" y="0"/>
    </contour>
    <contour>
      <point x="225" y="450" type="curve" smooth="yes"/>
      <point x="139" y="450" type="line"/>
      <point x="139" y="314" type="line"/>
      <point x="225" y="314" type="line" smooth="yes"/>
      <point x="285" y="314"/>
      <point x="328" y="332"/>
      <point x="328" y="384" type="curve" smooth="yes"/>
      <point x="328" y="432"/>
      <point x="285" y="450"/>
    </contour>
    <contour>
      <point x="245" y="234" type="curve" smooth="yes"/>
      <point x="139" y="234" type="line"/>
      <point x="139" y="80" type="line"/>
      <point x="245" y="80" type="line" smooth="yes"/>
      <point x="305" y="80"/>
      <point x="358" y="98"/>
      <point x="358" y="159" type="curve" smooth="yes"/>
      <point x="358" y="216"/>
      <point x="305" y="234"/>
    </contour>
  </outline>
</glyph>
<glyph name="uniA4D1" format="2">
  <advance width="493"/>
  <unicode hex="A4D1"/>
  <outline>
    <contour>
      <point x="247" y="209" type="curve" smooth="yes"/>
      <point x="149" y="209" type="line"/>
      <point x="149" y="0" type="line"/>
      <point x="65" y="0" type="line"/>
      <point x="64" y="531" type="line"/>
      <point x="226" y="531" type="line" smooth="yes"/>
      <point x="341" y="531"/>
      <point x="441" y="488"/>
      <point x="441" y="374" type="curve" smooth="yes"/>
      <point x="441" y="263"/>
      <point x="348" y="209"/>
    </contour>
    <contour>
      <point x="251" y="448" type="curve" smooth="yes"/>
      <point x="148" y="448" type="line"/>
      <point x="148" y="292" type="line"/>
      <point x="244" y="292" type="line" smooth="yes"/>
      <point x="294" y="292"/>
      <point x="356" y="315"/>
      <point x="356" y="372" type="curve" smooth="yes"/>
      <point x="356" y="427"/>
      <point x="301" y="448"/>
    </contour>
  </outline>
</glyph>
<glyph name="uniA4D2" format="2">
  <advance width="504"/>
  <unicode hex="A4D2"/>
  <outline>
    <contour>
      <point x="212" y="1" type="line" smooth="yes"/>
      <point x="124" y="1"/>
      <point x="49" y="68"/>
      <point x="48" y="157" type="curve" smooth="yes"/>
      <point x="47" y="294"/>
      <point x="143" y="337"/>
      <point x="241" y="337" type="curve"/>
      <point x="241" y="337"/>
      <point x="312" y="337"/>
      <point x="350" y="337" type="curve"/>
      <point x="350" y="531" type="line"/>
      <point x="434" y="531" type="line"/>
      <point x="434" y="1" type="line"/>
    </contour>
    <contour>
      <point x="350" y="254" type="line"/>
      <point x="246" y="254" type="line" smooth="yes"/>
      <point x="186" y="254"/>
      <point x="132" y="230"/>
      <point x="132" y="166" type="curve" smooth="yes"/>
      <point x="132" y="102"/>
      <point x="192" y="83"/>
      <point x="248" y="83" type="curve" smooth="yes"/>
      <point x="350" y="83" type="line"/>
    </contour>
  </outline>
</glyph>
<glyph name="uniA4D3" format="2">
  <advance width="525"/>
  <unicode hex="A4D3"/>
  <outline>
    <contour>
      <point x="220" y="0" type="curve" smooth="yes"/>
      <point x="64" y="0" type="line"/>
      <point x="64" y="530" type="line"/>
      <point x="220" y="530" type="line" smooth="yes"/>
      <point x="390" y="530"/>
      <point x="469" y="430"/>
      <point x="469" y="275" type="curve" smooth="yes"/>
      <point x="469" y="120"/>
      <point x="385" y="0"/>
    </contour>
    <contour>
      <point x="220" y="450" type="curve" smooth="yes"/>
      <point x="106" y="450" type="line"/>
      <point x="148" y="490" type="line"/>
      <point x="148" y="40" type="line"/>
      <point x="106" y="80" type="line"/>
      <point x="220" y="80" type="line" smooth="yes"/>
      <point x="335" y="80"/>
      <point x="385" y="155"/>
      <point x="385" y="270" type="curve" smooth="yes"/>
      <point x="385" y="385"/>
      <point x="335" y="450"/>
    </contour>
  </outline>
</glyph>
<glyph name="uniA4D4" format="2">
  <advance width="536"/>
  <unicode hex="A4D4"/>
  <outline>
    <contour>
      <point x="308" y="448" type="line"/>
      <point x="308" y="0" type="line"/>
      <point x="224" y="0" type="line"/>
      <point x="224" y="448" type="line"/>
      <point x="54" y="448" type="line"/>
      <point x="54" y="531" type="line"/>
      <point x="478" y="531" type="line"/>
      <point x="478" y="448" type="line"/>
    </contour>
  </outline>
</glyph>
<glyph name="uniA4D6" format="2">
  <advance width="568"/>
  <unicode hex="A4D6"/>
  <outline>
    <contour>
      <point x="300" y="-8" type="curve" smooth="yes"/>
      <point x="380" y="-8"/>
      <point x="450" y="26"/>
      <point x="512" y="76" type="curve"/>
      <point x="512" y="280" type="line"/>
      <point x="285" y="280" type="line"/>
      <point x="285" y="200" type="line"/>
      <point x="428" y="200" type="line"/>
      <point x="428" y="72" type="line"/>
      <point x="470" y="153" type="line"/>
      <point x="414" y="98"/>
      <point x="355" y="72"/>
      <point x="300" y="72" type="curve" smooth="yes"/>
      <point x="195" y="72"/>
      <point x="140" y="155"/>
      <point x="140" y="265" type="curve" smooth="yes"/>
      <point x="140" y="375"/>
      <point x="195" y="458"/>
      <point x="300" y="458" type="curve" smooth="yes"/>
      <point x="355" y="458"/>
      <point x="399" y="432"/>
      <point x="424" y="382" type="curve"/>
      <point x="502" y="415" type="line"/>
      <point x="466" y="490"/>
      <point x="400" y="538"/>
      <point x="300" y="538" type="curve" smooth="yes"/>
      <point x="137" y="538"/>
      <point x="56" y="406"/>
      <point x="56" y="260" type="curve" smooth="yes"/>
      <point x="56" y="113"/>
      <point x="137" y="-8"/>
    </contour>
  </outline>
</glyph>
<glyph name="uniA4D7" format="2">
  <advance width="520"/>
  <unicode hex="A4D7"/>
  <outline>
    <contour>
      <point x="106" y="116" type="line"/>
      <point x="466" y="530" type="line"/>
      <point x="360" y="530" type="line"/>
      <point x="106" y="239" type="line"/>
    </contour>
    <contour>
      <point x="64" y="0" type="line"/>
      <point x="148" y="0" type="line"/>
      <point x="148" y="530" type="line"/>
      <point x="64" y="530" type="line"/>
    </contour>
    <contour>
      <point x="372" y="0" type="line"/>
      <point x="472" y="0" type="line"/>
      <point x="243" y="334" type="line"/>
      <point x="187" y="270" type="line"/>
    </contour>
  </outline>
</glyph>
<glyph name="uniA4D8" format="2">
  <advance width="516"/>
  <unicode hex="A4D8"/>
  <outline>
    <contour>
      <point x="361" y="0" type="line"/>
      <point x="361" y="238" type="line"/>
      <point x="155" y="0" type="line"/>
      <point x="42" y="0" type="line"/>
      <point x="248" y="238" type="line"/>
      <point x="40" y="531" type="line"/>
      <point x="144" y="531" type="line"/>
      <point x="305" y="298" type="line"/>
      <point x="309" y="302"/>
      <point x="313" y="306"/>
      <point x="317" y="311" type="curve" smooth="yes"/>
      <point x="322" y="316"/>
      <point x="327" y="322"/>
      <point x="332" y="327" type="curve" smooth="yes"/>
      <point x="341" y="338"/>
      <point x="351" y="350"/>
      <point x="361" y="358" type="curve"/>
      <point x="361" y="531" type="line"/>
      <point x="445" y="531" type="line"/>
      <point x="445" y="0" type="line"/>
    </contour>
  </outline>
</glyph>
<glyph name="uniA4D9" format="2">
  <advance width="464"/>
  <unicode hex="A4D9"/>
  <outline>
    <contour>
      <point x="226" y="-8" type="curve" smooth="yes"/>
      <point x="326" y="-8"/>
      <point x="400" y="70"/>
      <point x="400" y="190" type="curve" smooth="yes"/>
      <point x="400" y="530" type="line"/>
      <point x="316" y="530" type="line"/>
      <point x="316" y="190" type="line" smooth="yes"/>
      <point x="316" y="116"/>
      <point x="281" y="72"/>
      <point x="226" y="72" type="curve" smooth="yes"/>
      <point x="171" y="72"/>
      <point x="136" y="112"/>
      <point x="136" y="170" type="curve" smooth="yes"/>
      <point x="136" y="185" type="line"/>
      <point x="52" y="185" type="line"/>
      <point x="52" y="160" type="line" smooth="yes"/>
      <point x="52" y="66"/>
      <point x="126" y="-8"/>
    </contour>
  </outline>
</glyph>
<glyph name="uniA4DA" format="2">
  <advance width="526"/>
  <unicode hex="A4DA"/>
  <outline>
    <contour>
      <point x="280" y="-8" type="curve" smooth="yes"/>
      <point x="393" y="-5"/>
      <point x="456" y="69"/>
      <point x="478" y="155" type="curve"/>
      <point x="396" y="176" type="line"/>
      <point x="383" y="121"/>
      <point x="340" y="72"/>
      <point x="280" y="72" type="curve" smooth="yes"/>
      <point x="185" y="72"/>
      <point x="140" y="160"/>
      <point x="140" y="265" type="curve" smooth="yes"/>
      <point x="140" y="370"/>
      <point x="185" y="458"/>
      <point x="280" y="458" type="curve" smooth="yes"/>
      <point x="340" y="458"/>
      <point x="376" y="425"/>
      <point x="391" y="379" type="curve"/>
      <point x="472" y="404" type="line"/>
      <point x="445" y="489"/>
      <point x="380" y="538"/>
      <point x="280" y="538" type="curve" smooth="yes"/>
      <point x="135" y="538"/>
      <point x="56" y="410"/>
      <point x="56" y="260" type="curve" smooth="yes"/>
      <point x="56" y="110"/>
      <point x="135" y="-12"/>
    </contour>
  </outline>
</glyph>
<glyph name="uniA4DC" format="2">
  <advance width="522"/>
  <unicode hex="A4DC"/>
  <outline>
    <contour>
      <point x="60" y="0" type="line"/>
      <point x="60" y="78" type="line"/>
      <point x="347" y="448" type="line"/>
      <point x="80" y="448" type="line"/>
      <point x="80" y="531" type="line"/>
      <point x="459" y="531" type="line"/>
      <point x="459" y="456" type="line"/>
      <point x="362" y="332"/>
      <point x="266" y="207"/>
      <point x="171" y="83" type="curve"/>
      <point x="465" y="83" type="line"/>
      <point x="465" y="0" type="line"/>
    </contour>
  </outline>
</glyph>
<glyph name="uniA4DD" format="2">
  <advance width="463"/>
  <unicode hex="A4DD"/>
  <outline>
    <contour>
      <point x="149" y="448" type="line"/>
      <point x="149" y="307" type="line"/>
      <point x="379" y="307" type="line"/>
      <point x="379" y="223" type="line"/>
      <point x="149" y="223" type="line"/>
      <point x="149" y="1" type="line"/>
      <point x="65" y="1" type="line"/>
      <point x="65" y="531" type="line"/>
      <point x="406" y="531" type="line"/>
      <point x="406" y="448" type="line"/>
    </contour>
  </outline>
</glyph>
<glyph name="uniA4DE" format="2">
  <advance width="486"/>
  <unicode hex="A4DE"/>
  <outline>
    <contour>
      <point x="75" y="1" type="line"/>
      <point x="75" y="82" type="line"/>
      <point x="332" y="82" type="line"/>
      <point x="332" y="230" type="line"/>
      <point x="102" y="230" type="line"/>
      <point x="102" y="313" type="line"/>
      <point x="332" y="313" type="line"/>
      <point x="332" y="531" type="line"/>
      <point x="416" y="531" type="line"/>
      <point x="416" y="1" type="line"/>
    </contour>
  </outline>
</glyph>
<glyph name="uniA4E0" format="2">
  <advance width="521"/>
  <unicode hex="A4E0"/>
  <outline>
    <contour>
      <point x="370" y="0" type="line"/>
      <point x="147" y="366" type="line"/>
      <point x="146" y="0" type="line"/>
      <point x="62" y="0" type="line"/>
      <point x="62" y="531" type="line"/>
      <point x="143" y="531" type="line"/>
      <point x="367" y="167" type="line"/>
      <point x="366" y="531" type="line"/>
      <point x="450" y="531" type="line"/>
      <point x="450" y="0" type="line"/>
    </contour>
  </outline>
</glyph>
<glyph name="uniA4E2" format="2">
  <advance width="512"/>
  <unicode hex="A4E2"/>
  <outline>
    <contour>
      <point x="254" y="-11" type="curve" smooth="yes"/>
      <point x="146" y="-11"/>
      <point x="52" y="42"/>
      <point x="41" y="161" type="curve"/>
      <point x="126" y="166" type="line"/>
      <point x="135" y="92"/>
      <point x="192" y="72"/>
      <point x="259" y="72" type="curve" smooth="yes"/>
      <point x="312" y="72"/>
      <point x="377" y="91"/>
      <point x="377" y="151" type="curve" smooth="yes"/>
      <point x="377" y="182"/>
      <point x="357" y="201"/>
      <point x="324" y="216" type="curve" smooth="yes"/>
      <point x="308" y="224"/>
      <point x="289" y="230"/>
      <point x="268" y="236" type="curve" smooth="yes"/>
      <point x="248" y="242"/>
      <point x="226" y="248"/>
      <point x="203" y="254" type="curve" smooth="yes"/>
      <point x="116" y="279"/>
      <point x="66" y="314"/>
      <point x="66" y="400" type="curve" smooth="yes"/>
      <point x="66" y="500"/>
      <point x="171" y="540"/>
      <point x="255" y="540" type="curve" smooth="yes"/>
      <point x="352" y="540"/>
      <point x="431" y="492"/>
      <point x="453" y="391" type="curve"/>
      <point x="367" y="383" type="line"/>
      <point x="367" y="440"/>
      <point x="298" y="457"/>
      <point x="252" y="457" type="curve" smooth="yes"/>
      <point x="207" y="457"/>
      <point x="147" y="438"/>
      <point x="149" y="394" type="curve" smooth="yes"/>
      <point x="151" y="357"/>
      <point x="197" y="340"/>
      <point x="228" y="332" type="curve" smooth="yes"/>
      <point x="265" y="322"/>
      <point x="300" y="310"/>
      <point x="337" y="301" type="curve"/>
      <point x="401" y="283"/>
      <point x="461" y="236"/>
      <point x="461" y="151" type="curve" smooth="yes"/>
      <point x="461" y="30"/>
      <point x="360" y="-11"/>
    </contour>
  </outline>
</glyph>
<glyph name="uniA4E4" format="2">
  <advance width="529"/>
  <unicode hex="A4E4"/>
  <outline>
    <contour>
      <point x="249" y="0" type="line" smooth="yes"/>
      <point x="158" y="0"/>
      <point x="66" y="46"/>
      <point x="66" y="149" type="curve" smooth="yes"/>
      <point x="66" y="227"/>
      <point x="111" y="274"/>
      <point x="183" y="296" type="curve"/>
      <point x="146" y="358"/>
      <point x="112" y="422"/>
      <point x="76" y="484" type="curve" smooth="yes"/>
      <point x="67" y="499"/>
      <point x="56" y="512"/>
      <point x="45" y="531" type="curve"/>
      <point x="146" y="531" type="line"/>
      <point x="272" y="306" type="line"/>
      <point x="375" y="306" type="line"/>
      <point x="375" y="531" type="line"/>
      <point x="459" y="531" type="line"/>
      <point x="459" y="0" type="line"/>
    </contour>
    <contour>
      <point x="375" y="222" type="line"/>
      <point x="245" y="222" type="line" smooth="yes"/>
      <point x="202" y="222"/>
      <point x="151" y="199"/>
      <point x="151" y="153" type="curve" smooth="yes"/>
      <point x="151" y="103"/>
      <point x="201" y="82"/>
      <point x="246" y="82" type="curve" smooth="yes"/>
      <point x="375" y="82" type="line"/>
    </contour>
  </outline>
</glyph>
<glyph name="uniA4E5" format="2">
  <advance width="585"/>
  <unicode hex="A4E5"/>
  <outline>
    <contour>
      <point x="443" y="1" type="line"/>
      <point x="390" y="140"/>
      <point x="338" y="274"/>
      <point x="286" y="412" type="curve"/>
      <point x="235" y="274"/>
      <point x="183" y="140"/>
      <point x="130" y="1" type="curve"/>
      <point x="40" y="1" type="line"/>
      <point x="242" y="531" type="line"/>
      <point x="330" y="531" type="line"/>
      <point x="534" y="1" type="line"/>
    </contour>
  </outline>
</glyph>
<glyph name="uniA4E7" format="2">
  <advance width="514"/>
  <unicode hex="A4E7"/>
  <outline>
    <contour>
      <point x="367" y="0" type="line"/>
      <point x="367" y="230" type="line"/>
      <point x="147" y="230" type="line"/>
      <point x="147" y="0" type="line"/>
      <point x="63" y="0" type="line"/>
      <point x="63" y="531" type="line"/>
      <point x="147" y="531" type="line"/>
      <point x="147" y="313" type="line"/>
      <point x="367" y="313" type="line"/>
      <point x="367" y="531" type="line"/>
      <point x="451" y="531" type="line"/>
      <point x="451" y="0" type="line"/>
    </contour>
  </outline>
</glyph>
<glyph name="uniA4E8" format="2">
  <advance width="568"/>
  <unicode hex="A4E8"/>
  <outline>
    <contour>
      <point x="266" y="-8" type="curve" smooth="yes"/>
      <point x="432" y="-8"/>
      <point x="512" y="124"/>
      <point x="512" y="270" type="curve" smooth="yes"/>
      <point x="512" y="417"/>
      <point x="432" y="538"/>
      <point x="266" y="538" type="curve" smooth="yes"/>
      <point x="186" y="538"/>
      <point x="124" y="499"/>
      <point x="62" y="449" type="curve"/>
      <point x="62" y="245" type="line"/>
      <point x="276" y="245" type="line"/>
      <point x="276" y="325" type="line"/>
      <point x="146" y="325" type="line"/>
      <point x="146" y="453" type="line"/>
      <point x="104" y="372" type="line"/>
      <point x="160" y="427"/>
      <point x="211" y="458"/>
      <point x="266" y="458" type="curve" smooth="yes"/>
      <point x="374" y="458"/>
      <point x="428" y="375"/>
      <point x="428" y="265" type="curve" smooth="yes"/>
      <point x="428" y="155"/>
      <point x="374" y="72"/>
      <point x="266" y="72" type="curve" smooth="yes"/>
      <point x="206" y="72"/>
      <point x="162" y="101"/>
      <point x="132" y="151" type="curve"/>
      <point x="56" y="113" type="line"/>
      <point x="97" y="38"/>
      <point x="161" y="-8"/>
    </contour>
  </outline>
</glyph>
<glyph name="uniA4E9" format="2">
  <advance width="483"/>
  <unicode hex="A4E9"/>
  <outline>
    <contour>
      <point x="337" y="352" type="line"/>
      <point x="339" y="359"/>
      <point x="339" y="370"/>
      <point x="339" y="372" type="curve"/>
      <point x="334" y="412"/>
      <point x="302" y="454"/>
      <point x="250" y="454" type="curve" smooth="yes"/>
      <point x="197" y="454"/>
      <point x="160" y="399"/>
      <point x="160" y="351" type="curve" smooth="yes"/>
      <point x="160" y="0" type="line"/>
      <point x="76" y="0" type="line"/>
      <point x="76" y="356" type="line" smooth="yes"/>
      <point x="76" y="448"/>
      <point x="153" y="536"/>
      <point x="249" y="537" type="curve" smooth="yes"/>
      <point x="364" y="538"/>
      <point x="419" y="454"/>
      <point x="423" y="352" type="curve"/>
    </contour>
  </outline>
</glyph>
<glyph name="uniA4EB" format="2">
  <advance width="556"/>
  <unicode hex="A4EB"/>
  <outline>
    <contour>
      <point x="410" y="0" type="line"/>
      <point x="372" y="60"/>
      <point x="316" y="145"/>
      <point x="277" y="206" type="curve"/>
      <point x="236" y="148"/>
      <point x="181" y="66"/>
      <point x="138" y="0" type="curve"/>
      <point x="36" y="0" type="line"/>
      <point x="222" y="275" type="line"/>
      <point x="58" y="531" type="line"/>
      <point x="159" y="531" type="line"/>
      <point x="279" y="340" type="line"/>
      <point x="319" y="404"/>
      <point x="362" y="466"/>
      <point x="404" y="531" type="curve"/>
      <point x="505" y="531" type="line"/>
      <point x="334" y="275" type="line"/>
      <point x="512" y="0" type="line"/>
    </contour>
  </outline>
</glyph>
<glyph name="uniA4ED" format="2">
  <advance width="510"/>
  <unicode hex="A4ED"/>
  <outline>
    <contour>
      <point x="256" y="0" type="curve" smooth="yes"/>
      <point x="446" y="0" type="line"/>
      <point x="446" y="530" type="line"/>
      <point x="246" y="530" type="line" smooth="yes"/>
      <point x="128" y="530"/>
      <point x="56" y="474"/>
      <point x="56" y="373" type="curve" smooth="yes"/>
      <point x="56" y="311"/>
      <point x="95" y="268"/>
      <point x="167" y="257" type="curve"/>
      <point x="167" y="283" type="line"/>
      <point x="100" y="254"/>
      <point x="66" y="205"/>
      <point x="66" y="148" type="curve" smooth="yes"/>
      <point x="66" y="57"/>
      <point x="133" y="0"/>
    </contour>
    <contour>
      <point x="362" y="40" type="line"/>
      <point x="404" y="80" type="line"/>
      <point x="256" y="80" type="line" smooth="yes"/>
      <point x="191" y="80"/>
      <point x="150" y="101"/>
      <point x="150" y="153" type="curve" smooth="yes"/>
      <point x="150" y="207"/>
      <point x="191" y="230"/>
      <point x="256" y="230" type="curve" smooth="yes"/>
      <point x="404" y="230" type="line"/>
      <point x="362" y="260" type="line"/>
    </contour>
    <contour>
      <point x="362" y="280" type="line"/>
      <point x="404" y="310" type="line"/>
      <point x="246" y="310" type="line" smooth="yes"/>
      <point x="186" y="310"/>
      <point x="140" y="328"/>
      <point x="140" y="378" type="curve" smooth="yes"/>
      <point x="140" y="432"/>
      <point x="186" y="450"/>
      <point x="246" y="450" type="curve" smooth="yes"/>
      <point x="404" y="450" type="line"/>
      <point x="362" y="490" type="line"/>
    </contour>
  </outline>
</glyph>
<glyph name="uniA4EE" format="2">
  <advance width="554"/>
  <unicode hex="A4EE"/>
  <outline>
    <contour>
      <point x="431" y="2" type="line"/>
      <point x="388" y="104" type="line"/>
      <point x="154" y="104" type="line"/>
      <point x="117" y="2" type="line"/>
      <point x="27" y="2" type="line"/>
      <point x="219" y="531" type="line"/>
      <point x="309" y="531" type="line"/>
      <point x="520" y="2" type="line"/>
    </contour>
    <contour>
      <point x="266" y="416" type="line"/>
      <point x="238" y="336"/>
      <point x="210" y="258"/>
      <point x="182" y="178" type="curve"/>
      <point x="360" y="178" type="line"/>
    </contour>
  </outline>
</glyph>
<glyph name="uniA4EF" format="2">
  <advance width="590"/>
  <unicode hex="A4EF"/>
  <outline>
    <contour>
      <point x="250" y="0" type="line"/>
      <point x="340" y="0" type="line"/>
      <point x="542" y="530" type="line"/>
      <point x="452" y="530" type="line"/>
      <point x="279" y="66" type="line"/>
      <point x="311" y="66" type="line"/>
      <point x="138" y="530" type="line"/>
      <point x="48" y="530" type="line"/>
    </contour>
    <contour>
      <point x="163" y="355" type="line"/>
      <point x="427" y="355" type="line"/>
      <point x="456" y="430" type="line"/>
      <point x="135" y="430" type="line"/>
    </contour>
  </outline>
</glyph>
<glyph name="uniA4F2" format="2">
  <advance width="241"/>
  <unicode hex="A4F2"/>
  <outline>
    <contour>
      <point x="79" y="2" type="line"/>
      <point x="79" y="531" type="line"/>
      <point x="163" y="531" type="line"/>
      <point x="163" y="2" type="line"/>
    </contour>
  </outline>
</glyph>
<glyph name="uniA4F3" format="2">
  <advance width="554"/>
  <unicode hex="A4F3"/>
  <outline>
    <contour>
      <point x="282" y="-10" type="curve" smooth="yes"/>
      <point x="137" y="-10"/>
      <point x="54" y="131"/>
      <point x="54" y="259" type="curve" smooth="yes"/>
      <point x="54" y="391"/>
      <point x="132" y="537"/>
      <point x="283" y="537" type="curve" smooth="yes"/>
      <point x="429" y="537"/>
      <point x="509" y="393"/>
      <point x="509" y="265" type="curve" smooth="yes"/>
      <point x="509" y="137"/>
      <point x="428" y="-10"/>
    </contour>
    <contour>
      <point x="283" y="454" type="curve" smooth="yes"/>
      <point x="186" y="454"/>
      <point x="139" y="343"/>
      <point x="139" y="258" type="curve" smooth="yes"/>
      <point x="139" y="172"/>
      <point x="181" y="73"/>
      <point x="282" y="73" type="curve" smooth="yes"/>
      <point x="381" y="73"/>
      <point x="424" y="180"/>
      <point x="424" y="265" type="curve" smooth="yes"/>
      <point x="424" y="348"/>
      <point x="378" y="454"/>
    </contour>
  </outline>
</glyph>
<glyph name="uniA4F6" format="2">
  <advance width="456"/>
  <unicode hex="A4F6"/>
  <outline>
    <contour>
      <point x="310" y="0" type="line"/>
      <point x="310" y="448" type="line"/>
      <point x="58" y="448" type="line"/>
      <point x="58" y="531" type="line"/>
      <point x="394" y="531" type="line"/>
      <point x="394" y="0" type="line"/>
    </contour>
  </outline>
</glyph>
<glyph name="uniA4F7" format="2">
  <advance width="517"/>
  <unicode hex="A4F7"/>
  <outline>
    <contour>
      <point x="279" y="1" type="line" smooth="yes"/>
      <point x="136" y="1"/>
      <point x="56" y="142"/>
      <point x="56" y="267" type="curve" smooth="yes"/>
      <point x="56" y="399"/>
      <point x="135" y="531"/>
      <point x="283" y="531" type="curve" smooth="yes"/>
      <point x="459" y="531" type="line"/>
      <point x="459" y="1" type="line"/>
    </contour>
    <contour>
      <point x="376" y="448" type="line"/>
      <point x="284" y="448" type="line" smooth="yes"/>
      <point x="192" y="448"/>
      <point x="140" y="350"/>
      <point x="140" y="268" type="curve" smooth="yes"/>
      <point x="140" y="185"/>
      <point x="183" y="84"/>
      <point x="277" y="84" type="curve" smooth="yes"/>
      <point x="376" y="84" type="line"/>
    </contour>
  </outline>
</glyph>
<glyph name="uniA4F8" format="2">
  <advance width="274"/>
  <unicode hex="A4F8"/>
  <outline>
    <contour>
      <point x="148" y="-12" type="curve" smooth="yes"/>
      <point x="107" y="-12"/>
      <point x="71" y="18"/>
      <point x="71" y="59" type="curve" smooth="yes"/>
      <point x="71" y="100"/>
      <point x="107" y="137"/>
      <point x="148" y="137" type="curve" smooth="yes"/>
      <point x="188" y="137"/>
      <point x="226" y="98"/>
      <point x="226" y="59" type="curve" smooth="yes"/>
      <point x="226" y="20"/>
      <point x="188" y="-12"/>
    </contour>
  </outline>
</glyph>
<glyph name="uniA4F9" format="2">
  <advance width="268"/>
  <unicode hex="A4F9"/>
  <outline>
    <contour>
      <point x="70" y="-178" type="line"/>
      <point x="171" y="-140"/>
      <point x="220" y="-64"/>
      <point x="220" y="28" type="curve" smooth="yes"/>
      <point x="220" y="101"/>
      <point x="189" y="140"/>
      <point x="136" y="140" type="curve" smooth="yes"/>
      <point x="93" y="140"/>
      <point x="64" y="107"/>
      <point x="64" y="64" type="curve" smooth="yes"/>
      <point x="64" y="21"/>
      <point x="90" y="-5"/>
      <point x="122" y="-5" type="curve" smooth="yes"/>
      <point x="154" y="-5"/>
      <point x="185" y="18"/>
      <point x="185" y="50" type="curve"/>
      <point x="178" y="50"/>
      <point x="148" y="50"/>
      <point x="138" y="50" type="curve"/>
      <point x="146" y="37"/>
      <point x="153" y="20"/>
      <point x="153" y="-16" type="curve" smooth="yes"/>
      <point x="153" y="-75"/>
      <point x="106" y="-107"/>
      <point x="58" y="-130" type="curve"/>
    </contour>
  </outline>
</glyph>
<glyph name="uniA4FA" format="2">
  <advance width="490"/>
  <unicode hex="A4FA"/>
  <outline>
    <contour>
      <point x="369" y="-13" type="curve" smooth="yes"/>
      <point x="325" y="-13"/>
      <point x="300" y="25"/>
      <point x="300" y="63" type="curve" smooth="yes"/>
      <point x="300" y="100"/>
      <point x="328" y="136"/>
      <point x="369" y="136" type="curve" smooth="yes"/>
      <point x="413" y="136"/>
      <point x="442" y="99"/>
      <point x="442" y="60" type="curve" smooth="yes"/>
      <point x="442" y="21"/>
      <point x="411" y="-13"/>
    </contour>
    <contour>
      <point x="139" y="-13" type="curve" smooth="yes"/>
      <point x="98" y="-13"/>
      <point x="69" y="22"/>
      <point x="69" y="59" type="curve" smooth="yes"/>
      <point x="69" y="98"/>
      <point x="96" y="136"/>
      <point x="140" y="136" type="curve" smooth="yes"/>
      <point x="181" y="136"/>
      <point x="211" y="100"/>
      <point x="211" y="63" type="curve" smooth="yes"/>
      <point x="211" y="24"/>
      <point x="183" y="-13"/>
    </contour>
  </outline>
</glyph>
<glyph name="uniA4FB" format="2">
  <advance width="497"/>
  <unicode hex="A4FB"/>
  <outline>
    <contour>
      <point x="294" y="-184" type="curve"/>
      <point x="290" y="-136" type="line"/>
      <point x="341" y="-108"/>
      <point x="383" y="-73"/>
      <point x="383" y="-14" type="curve" smooth="yes"/>
      <point x="383" y="-3"/>
      <point x="377" y="0"/>
      <point x="366" y="0" type="curve" smooth="yes"/>
      <point x="363" y="0"/>
      <point x="361" y="-1"/>
      <point x="358" y="-2" type="curve" smooth="yes"/>
      <point x="355" y="-3"/>
      <point x="352" y="-3"/>
      <point x="349" y="-3" type="curve" smooth="yes"/>
      <point x="313" y="-3"/>
      <point x="295" y="33"/>
      <point x="295" y="63" type="curve" smooth="yes"/>
      <point x="295" y="103"/>
      <point x="326" y="141"/>
      <point x="369" y="141" type="curve" smooth="yes"/>
      <point x="438" y="141"/>
      <point x="452" y="81"/>
      <point x="452" y="28" type="curve" smooth="yes"/>
      <point x="452" y="-64"/>
      <point x="385" y="-150"/>
    </contour>
    <contour>
      <point x="145" y="-11" type="curve" smooth="yes"/>
      <point x="102" y="-11"/>
      <point x="74" y="28"/>
      <point x="74" y="66" type="curve" smooth="yes"/>
      <point x="74" y="104"/>
      <point x="104" y="141"/>
      <point x="145" y="141" type="curve" smooth="yes"/>
      <point x="188" y="141"/>
      <point x="219" y="104"/>
      <point x="219" y="63" type="curve" smooth="yes"/>
      <point x="219" y="23"/>
      <point x="187" y="-11"/>
    </contour>
  </outline>
</glyph>
<glyph name="uniA4FE" format="2">
  <advance width="585"/>
  <unicode hex="A4FE"/>
  <outline>
    <contour>
      <point x="469" y="-12" type="curve" smooth="yes"/>
      <point x="427" y="-12"/>
      <point x="391" y="20"/>
      <point x="391" y="62" type="curve" smooth="yes"/>
      <point x="391" y="103"/>
      <point x="427" y="137"/>
      <point x="469" y="137" type="curve" smooth="yes"/>
      <point x="509" y="137"/>
      <point x="543" y="103"/>
      <point x="543" y="64" type="curve" smooth="yes"/>
      <point x="543" y="23"/>
      <point x="512" y="-12"/>
    </contour>
    <contour>
      <point x="98" y="210" type="line"/>
      <point x="98" y="292" type="line"/>
      <point x="372" y="292" type="line"/>
      <point x="372" y="210" type="line"/>
    </contour>
  </outline>
</glyph>
<glyph name="uniA4FF" format="2">
  <advance width="466"/>
  <unicode hex="A4FF"/>
  <outline>
    <contour>
      <point x="72" y="310" type="line"/>
      <point x="410" y="310" type="line"/>
      <point x="410" y="390" type="line"/>
      <point x="72" y="390" type="line"/>
    </contour>
    <contour>
      <point x="72" y="150" type="line"/>
      <point x="410" y="150" type="line"/>
      <point x="410" y="230" type="line"/>
      <point x="72" y="230" type="line"/>
    </contour>
  </outline>
</glyph>
